<?xml version="1.0" encoding="utf-8"?>
<!-- Generator: Adobe Illustrator 27.0.0, SVG Export Plug-In . SVG Version: 6.00 Build 0)  -->
<svg version="1.1" id="Layer_1" xmlns="http://www.w3.org/2000/svg" xmlns:xlink="http://www.w3.org/1999/xlink" x="0px" y="0px"
	 viewBox="0 0 512 512" style="enable-background:new 0 0 512 512;" xml:space="preserve">
<style type="text/css">
	.st0{fill:#006EAF;}
	.st1{fill:#00A7E1;}
	.st2{fill:#5BC9EC;}
	.st3{fill:#FFFFFF;}
	.st4{fill:#013A78;}
</style>
<g id="XMLID_1_">
	<path id="XMLID_2_" class="st0" d="M41.24,116.85l202.42,110.4l6.17-116.71l-62.56-101C126.53,26.51,74.77,65.23,41.24,116.85z
		 M331.05,11.22l-66.77,99.45l2.1,124.98l206.76-114.88C440.6,68.87,390.52,29.46,331.05,11.22z"/>
	<path id="XMLID_5_" class="st1" d="M120.07,472.58L245.76,268.2L41.24,116.99C15.29,157.11,0,204.8,0,256
		C0,347.32,47.97,427.27,120.07,472.58z M473,120.64L266.24,268.34l127.79,202.98C464.87,425.73,512,346.48,512,256
		C512,206.2,497.55,159.91,473,120.64L473,120.64L473,120.64z"/>
	<path id="XMLID_8_" class="st2" d="M258.1,511.86l-12.34-200.59L120.07,472.58C159.49,497.41,205.92,512,256,512
		C256.7,512,257.4,511.86,258.1,511.86z M394.03,471.32L264.14,307.2l-6.17,204.66C308.18,511.44,354.75,496.57,394.03,471.32z"/>
	<polygon id="XMLID_11_" class="st3" points="331.05,11.22 258.1,98.33 187.27,9.54 187.27,9.54 249.83,110.54 243.66,227.38 
		41.24,116.85 41.24,116.99 245.76,268.34 120.07,472.58 120.07,472.58 245.76,311.27 258.1,511.86 264.14,307.2 394.03,471.32 
		266.24,268.34 473,120.64 266.24,235.52 264.14,110.54 	"/>
	<path id="XMLID_12_" class="st4" d="M256,0c-23.85,0-46.85,3.51-68.73,9.54l70.7,88.79l72.94-87.11C307.2,3.93,282.09,0,256,0z"/>
</g>
</svg>
